<svg id="Layer_1" data-name="Layer 1" xmlns="http://www.w3.org/2000/svg" viewBox="0 0 762.85 298.95"><title>logosvg</title><polygon points="0 263.61 92.48 171.12 80.7 159.34 139.61 159.34 139.61 218.25 127.83 206.47 35.34 298.95 0 263.61 0 263.61" style="fill:#00b058"/><polygon points="35.34 0 127.83 92.48 139.61 80.7 139.61 139.61 80.7 139.61 92.48 127.83 0 35.34 35.34 0 35.34 0" style="fill:#2b71b8"/><polygon points="298.95 35.34 206.47 127.83 218.25 139.61 159.34 139.61 159.34 80.7 171.12 92.48 263.61 0 298.95 35.34 298.95 35.34" style="fill:#ec1b31"/><polygon points="263.61 298.95 171.12 206.47 159.34 218.25 159.34 159.34 218.25 159.34 206.47 171.12 298.95 263.61 263.61 298.95 263.61 298.95" style="fill:#f4e634"/><path d="M356.18,131.06l-16.29,9a27.57,27.57,0,0,0-9.06-6.66,27.1,27.1,0,0,0-10.51-1.86q-11,0-17.76,6.51c-4.53,4.36-6.78,9.92-6.78,16.73q0,9.92,6.51,16.19t17.14,6.27q13.11,0,20.45-9l15.4,10.58q-12.56,16.31-35.44,16.31-20.61,0-32.25-12.17T275.95,154.5a40,40,0,0,1,21.5-35.78,47.27,47.27,0,0,1,22.7-5.44A46,46,0,0,1,341,117.91a39.64,39.64,0,0,1,15.14,13.15Zm17.66-15.87h19.84v37.52q0,10.95,1.52,15.21a13.37,13.37,0,0,0,4.85,6.64,14,14,0,0,0,8.25,2.35,14.54,14.54,0,0,0,8.33-2.33,13.58,13.58,0,0,0,5.07-6.83q1.21-3.38,1.22-14.4V115.19h19.54v33q0,20.43-3.23,27.94a30.46,30.46,0,0,1-11.63,14.08q-7.68,4.89-19.52,4.9c-8.57,0-15.48-1.91-20.77-5.73a30.25,30.25,0,0,1-11.17-16q-2.31-7.09-2.3-25.79V115.19ZM460,85.07h19.54V193.22H460V85.07Zm39.63,1.32h19.54v28.8h11.61v16.9H519.14v61.13H499.59V132.09h-10v-16.9h10V86.39Zm41.71,28.8h19.84v37.52q0,10.95,1.52,15.21a13.36,13.36,0,0,0,4.85,6.64,14,14,0,0,0,8.25,2.35,14.54,14.54,0,0,0,8.33-2.33,13.58,13.58,0,0,0,5.07-6.83q1.21-3.38,1.22-14.4V115.19h19.54v33q0,20.43-3.23,27.94a30.46,30.46,0,0,1-11.63,14.08q-7.68,4.89-19.52,4.9c-8.57,0-15.48-1.91-20.77-5.73a30.25,30.25,0,0,1-11.17-16q-2.31-7.09-2.3-25.79V115.19Zm83.64,0h16.9v9.92a21,21,0,0,1,7.2-8.82,17.39,17.39,0,0,1,9.85-3,18.11,18.11,0,0,1,7.93,2l-6.07,16.9a13.25,13.25,0,0,0-5.63-1.71c-3,0-5.53,1.86-7.59,5.58s-3.11,11-3.11,21.89l.07,3.8v31.47H624.94v-78Zm129.65,44.52H691.77A21.22,21.22,0,0,0,699,173c3.92,3.28,8.94,4.92,15,4.92a25.86,25.86,0,0,0,18.78-7.71L749.23,178a39.09,39.09,0,0,1-14.72,13q-8.6,4.19-20.38,4.19-18.29,0-29.8-11.56t-11.51-28.92q0-17.82,11.51-29.58t28.85-11.78q18.4,0,30,11.73c7.69,7.84,11.54,18.15,11.54,31l-.07,3.7Zm-19.47-15.28A19.36,19.36,0,0,0,727.48,134a22.55,22.55,0,0,0-13.27-4,23.74,23.74,0,0,0-14.38,4.51q-3.86,2.79-7.18,9.89Z" transform="translate(-19.15 -7.25)" style="fill:#231f20;fill-rule:evenodd"/><path d="M764.77,100.49c0,.2,0,.38,0,.52a1.79,1.79,0,0,1-.08.35.43.43,0,0,1-.13.2.29.29,0,0,1-.18.07H761v11a.32.32,0,0,1-.06.19.55.55,0,0,1-.23.14,2.07,2.07,0,0,1-.43.08,6.29,6.29,0,0,1-1.34,0,2.21,2.21,0,0,1-.43-.08.51.51,0,0,1-.22-.14.28.28,0,0,1-.07-.19v-11h-3.42a.27.27,0,0,1-.18-.07.48.48,0,0,1-.13-.2,1.54,1.54,0,0,1-.08-.35c0-.15,0-.32,0-.52s0-.39,0-.54a1.67,1.67,0,0,1,.08-.36.5.5,0,0,1,.13-.19.27.27,0,0,1,.18-.05h9.61a.29.29,0,0,1,.18.05.43.43,0,0,1,.13.19,1.94,1.94,0,0,1,.08.36c0,.15,0,.33,0,.54Z" transform="translate(-19.15 -7.25)" style="fill:#010101"/><path d="M782,112.61a.34.34,0,0,1-.06.19.42.42,0,0,1-.21.14,2,2,0,0,1-.41.08,5.27,5.27,0,0,1-.64,0,5.13,5.13,0,0,1-.63,0,1.76,1.76,0,0,1-.4-.08.49.49,0,0,1-.21-.14.34.34,0,0,1-.06-.19v-11.1h0l-4,11.09a.54.54,0,0,1-.14.23.78.78,0,0,1-.26.14,1.63,1.63,0,0,1-.42.07l-.61,0a5.47,5.47,0,0,1-.61,0,1.64,1.64,0,0,1-.41-.09.69.69,0,0,1-.26-.14.43.43,0,0,1-.13-.2l-3.81-11.09h0v11.1a.32.32,0,0,1-.07.19.42.42,0,0,1-.21.14,2,2,0,0,1-.4.08,5.21,5.21,0,0,1-.64,0,5.3,5.3,0,0,1-.64,0,1.92,1.92,0,0,1-.4-.08.45.45,0,0,1-.21-.14.36.36,0,0,1-.06-.19V100.45a1.14,1.14,0,0,1,.28-.82,1,1,0,0,1,.76-.28H769a3.77,3.77,0,0,1,.83.08,1.56,1.56,0,0,1,.6.26,1.41,1.41,0,0,1,.43.49,3.46,3.46,0,0,1,.29.74l3,8.13h0l3.06-8.1a4.11,4.11,0,0,1,.3-.75,1.71,1.71,0,0,1,.38-.49,1.18,1.18,0,0,1,.51-.27,2.62,2.62,0,0,1,.68-.08h1.87a1.5,1.5,0,0,1,.49.07.82.82,0,0,1,.34.22,1,1,0,0,1,.2.35,1.51,1.51,0,0,1,.07.46v12.16Z" transform="translate(-19.15 -7.25)" style="fill:#010101"/></svg>